<svg id="Layer_1" data-name="Layer 1" xmlns="http://www.w3.org/2000/svg" viewBox="0 0 242 52" width="242px" height="52px"><defs><style>.cls-1{fill:#0076be;}</style></defs><title>zscaler-header-logo</title><g id="Navigation"><path class="cls-1" d="M80.68,26.44C82,34.79,75,39.5,68,40c-3.57,6.62-10.92,12-21.54,12a25,25,0,0,1-12.51-2.84,16,16,0,0,1-2.85.26c-3.71,0-6.24-.86-8.71-3.79,5-6.73,20.22-18.83,38.76-12.58,9.91,3.33,12.49-4.5,10-7.43-9.34-11.07-30.46-1.11-31.21-.27C48.19,12.11,77.85,8.41,80.68,26.44ZM52.26,11.24c.06,0-6.73-2.51-16.23,1.77a11.53,11.53,0,0,1-1.12-.54c9.13-6.31,17.14-9,24-8C54.49.58,49.65,0,42.59,0,34.76,0,27.82,3.07,23.42,7.82a18.76,18.76,0,0,0-4.15-.44C8.66,7.38-.55,17.39,0,28.76S12.48,47.22,19.27,45.31a1.4,1.4,0,0,1,.5,0C21.27,37.79,27.4,20.3,52.26,11.24Zm56.81,10.41,1.27-5.8H89.09l-.48,2.24a2.71,2.71,0,0,0,.44,2.39,2.56,2.56,0,0,0,2.13,1H101L83.58,37.49,82.4,42.87h22.51L106.23,37H92Zm14.18,4.67a3.09,3.09,0,0,1-.8-.11,6.74,6.74,0,0,1-1-.29c-3.21-.75-4.7-1.66-4.47-2.75a2.74,2.74,0,0,1,1.28-1.83,6.36,6.36,0,0,1,3.06-.6,4.27,4.27,0,0,1,3,.91l.6.81a2.38,2.38,0,0,0,2.45,1.73h4.19A7.54,7.54,0,0,0,130,17.58q-2.5-2.32-7.57-2.33a14.11,14.11,0,0,0-8.1,2.33A10.75,10.75,0,0,0,110.14,24a5.39,5.39,0,0,0,.89,4.88c.9,1.22,3,2.27,6.22,3.15a16.74,16.74,0,0,0,2.49.61c2.6.61,3.77,1.53,3.5,2.74a2.87,2.87,0,0,1-1.59,1.93,6.89,6.89,0,0,1-3.2.74,5.69,5.69,0,0,1-3.68-1,3,3,0,0,1-.79-3h-6.62l-.07.3c-.64,3-.21,5.25,1.34,6.8s4.05,2.35,7.78,2.34c3.9,0,7-.74,9.25-2.24a10.69,10.69,0,0,0,4.64-6.89,5.57,5.57,0,0,0-.78-4.88Q127.91,27.64,123.25,26.32Zm24.37,8.73a6.67,6.67,0,0,0-1,.81,6.39,6.39,0,0,1-.67.53,1.46,1.46,0,0,1-.61.36,6.09,6.09,0,0,1-3,.71c-1.68,0-2.83-.53-3.44-1.62-.89-1.28-1-3.49-.32-6.6s1.76-5.34,3.23-6.7a5.72,5.72,0,0,1,3.82-1.43A3.66,3.66,0,0,1,149,22.54a4.18,4.18,0,0,1,.64,1.52h6.82a11.51,11.51,0,0,0-1.39-5.18q-2.42-3.66-8.27-3.66A13.27,13.27,0,0,0,137.28,19,19.51,19.51,0,0,0,132,29.16q-1.48,6.81.82,10.46t7.86,3.76a14.28,14.28,0,0,0,8.1-2.34,14.93,14.93,0,0,0,5.52-6.49H149.5A3.07,3.07,0,0,0,147.62,35.05Zm29.68-2.94a14.62,14.62,0,0,1-2.8,6.34,12,12,0,0,1-4.07,3.31,14.27,14.27,0,0,1-4.64,1.37,37.44,37.44,0,0,1-4.1.25,8.26,8.26,0,0,1-5.72-2q-2.19-2-1.19-6.56a9.27,9.27,0,0,1,3.72-6.09,16.69,16.69,0,0,1,6.62-2.44,6,6,0,0,0,1.19-.15,15.66,15.66,0,0,1,1.61-.25c3-.41,4.58-1.29,4.87-2.65a1.5,1.5,0,0,0-.83-1.9,1.09,1.09,0,0,0-.24-.07,8.43,8.43,0,0,0-2.68-.46,7.43,7.43,0,0,0-2.52.4,3.69,3.69,0,0,0-1.9,1.52h-6.51A10.5,10.5,0,0,1,162,17.56a13.12,13.12,0,0,1,8-2.33q5.44,0,7.76,1.92t1.58,5.7Zm-5.71-2.85a21.12,21.12,0,0,1-4.08,1.32l-2.34.53a7.3,7.3,0,0,0-2.82,1.32,5.56,5.56,0,0,0-1.18,2.24,2.92,2.92,0,0,0,.34,2.44,3,3,0,0,0,2.36.8,6.91,6.91,0,0,0,4.65-1.59,7.81,7.81,0,0,0,2.55-4.48ZM190.5,8.9A2.57,2.57,0,0,0,188.37,8h-3.51l-7.63,34.93h6.82L191,11.31A2.7,2.7,0,0,0,190.5,8.9ZM206,34.55h4.88A15,15,0,0,1,205.41,41a14.34,14.34,0,0,1-8.12,2.34c-3.71,0-6.31-1.25-7.84-3.76s-1.83-5.92-.83-10.44A19.39,19.39,0,0,1,193.86,19a13.3,13.3,0,0,1,9.49-3.75c3.91,0,6.66,1.22,8.27,3.66s1.81,6,.83,10.46c-.06.27-.11.53-.17.71a3.35,3.35,0,0,0-.08.4,2.5,2.5,0,0,1-.25.71H195.09c-.39,2.12-.26,3.66.44,4.68A3.56,3.56,0,0,0,199,37.51c2.44-.07,3.39-.89,3.56-1.06a16.35,16.35,0,0,1,1.58-1.37A3.19,3.19,0,0,1,206,34.55Zm-9.95-7.92H206a5.86,5.86,0,0,0-.47-4.07,3.79,3.79,0,0,0-3.3-1.42,5.74,5.74,0,0,0-3.81,1.42A7.63,7.63,0,0,0,196.09,26.63Zm34.65-10.78a20.28,20.28,0,0,0-5.26.72,14.54,14.54,0,0,0-8.84,6.55,20.5,20.5,0,0,0-2.58,6.65l-2.87,13.1H218L221.07,29a10.19,10.19,0,0,1,2.34-4.47c2.34-2.81,6.75-2.57,6.75-2.57l1.58-6.07h-1Z" transform="translate(0.02)"/><path class="cls-1" d="M232.56,10.61l.18-.85h3.67l-.17.85h-1.32l-.75,3.72h-1l.76-3.72Z" transform="translate(0.02)"/><path class="cls-1" d="M238.6,9.74l.34,3.32h0l1.69-3.32H242l-.91,4.59h-.91l.8-3.65h0l-1.86,3.65h-.73l-.43-3.65h0l-.69,3.65h-.91l.93-4.59Z" transform="translate(0.02)"/></g></svg>